<svg width="496" height="421" viewBox="0 0 496 421" fill="none" xmlns="http://www.w3.org/2000/svg">
<path d="M168 80.6001L240 127V163H256V127L328 80.6001V107H344V61.4001L248 0.600098L152 61.4001V107H168V80.6001ZM248 19.0001L321.6 66.2001L248 112.6L174.4 66.2001L248 19.0001ZM104 300.6V223.8L176 177.4V203H192V159L96 97.4001L0 159V263L96 324.6L131.2 302.2L122.4 288.6L104 300.6ZM88 300.6L16 255V177.4L88 223.8V300.6ZM22.4 163L96 116.6L169.6 163L96 209.4L22.4 163ZM400 97.4001L304 159V195H320V177.4L392 223.8V300.6L373.6 288.6L364.8 302.2L400 324.6L496 263V159L400 97.4001ZM326.4 163L400 116.6L473.6 163L400 209.4L326.4 163ZM480 255L408 300.6V223.8L480 177.4V255ZM152 255V359.8L248 420.6L344 359.8V255L248 193.4L152 255ZM240 397.4L168 351V273.4L240 319.8V397.4ZM328 351L256 397.4V319.8L328 273.4V351ZM248 305.4L174.4 259L248 211.8L321.6 259L248 305.4Z" fill="url(#paint0_linear_203_3)"/>
<defs>
<linearGradient id="paint0_linear_203_3" x1="0" y1="210.6" x2="496" y2="210.6" gradientUnits="userSpaceOnUse">
<stop stop-color="#DA22FF"/>
<stop offset="1" stop-color="#9733EE"/>
</linearGradient>
</defs>
</svg>
